<?xml version="1.0" encoding="UTF-8"?>
<!DOCTYPE svg PUBLIC "-//W3C//DTD SVG 1.1//EN" "http://www.w3.org/Graphics/SVG/1.1/DTD/svg11.dtd">
<svg version="1.1" xmlns="http://www.w3.org/2000/svg" xmlns:xlink="http://www.w3.org/1999/xlink" x="0" y="0" width="329.645" height="213.333" viewBox="0, 0, 329.645, 213.333">
  <g id="Layer_1" transform="translate(-86.355, -180)">
    <g>
      <path d="M90.833,308.5 L157.167,308.5 L157.167,392.833 L90.833,392.833 L90.833,308.5 z" fill="#DDDDDD"/>
      <path d="M90.833,308.5 L157.167,308.5 L157.167,392.833 L90.833,392.833 L90.833,308.5 z" fill-opacity="0" stroke="#515151" stroke-width="1.5"/>
    </g>
    <text transform="matrix(1, 0, 0, 1, 123.5, 323.147)">
      <tspan x="-29.057" y="4.175" font-family="HelveticaNeue-Bold" font-size="14" fill="#000000">batch/v1</tspan>
    </text>
    <text transform="matrix(1, 0, 0, 1, 178.39, 350.167)">
      <tspan x="-17.745" y="4.5" font-family="HelveticaNeue-Bold" font-size="14" fill="#000000">.yaml</tspan>
    </text>
    <g>
      <path d="M100.844,246.833 L147.156,246.833 C153.783,246.833 159.156,252.206 159.156,258.833 L159.156,264.167 C159.156,270.794 153.783,276.167 147.156,276.167 L100.844,276.167 C94.217,276.167 88.844,270.794 88.844,264.167 L88.844,258.833 C88.844,252.206 94.217,246.833 100.844,246.833 z" fill="#FFE436"/>
      <path d="M100.844,246.833 L147.156,246.833 C153.783,246.833 159.156,252.206 159.156,258.833 L159.156,264.167 C159.156,270.794 153.783,276.167 147.156,276.167 L100.844,276.167 C94.217,276.167 88.844,270.794 88.844,264.167 L88.844,258.833 C88.844,252.206 94.217,246.833 100.844,246.833 z" fill-opacity="0" stroke="#515151" stroke-width="1.5"/>
    </g>
    <g>
      <path d="M364.833,252.167 L364.833,252.167 C365.017,252.167 365.167,252.316 365.167,252.5 L365.167,252.5 C365.167,252.684 365.017,252.833 364.833,252.833 L364.833,252.833 C364.649,252.833 364.5,252.684 364.5,252.5 L364.5,252.5 C364.5,252.316 364.649,252.167 364.833,252.167 z" fill="#FFFFFF"/>
      <path d="M364.833,252.167 L364.833,252.167 C365.017,252.167 365.167,252.316 365.167,252.5 L365.167,252.5 C365.167,252.684 365.017,252.833 364.833,252.833 L364.833,252.833 C364.649,252.833 364.5,252.684 364.5,252.5 L364.5,252.5 C364.5,252.316 364.649,252.167 364.833,252.167 z" fill-opacity="0" stroke="#515151" stroke-width="1.5"/>
    </g>
    <text transform="matrix(1, 0, 0, 1, 123.5, 261)">
      <tspan x="-31.374" y="4.5" font-family="HelveticaNeue-Bold" font-size="14" fill="#000000">job.batch</tspan>
    </text>
    <g>
      <path d="M100.844,181.5 L147.156,181.5 C153.783,181.5 159.156,188.948 159.156,198.136 L159.156,205.53 C159.156,214.718 153.783,222.167 147.156,222.167 L100.844,222.167 C94.217,222.167 88.844,214.718 88.844,205.53 L88.844,198.136 C88.844,188.948 94.217,181.5 100.844,181.5 z" fill="#FF9937"/>
      <path d="M100.844,181.5 L147.156,181.5 C153.783,181.5 159.156,188.948 159.156,198.136 L159.156,205.53 C159.156,214.718 153.783,222.167 147.156,222.167 L100.844,222.167 C94.217,222.167 88.844,214.718 88.844,205.53 L88.844,198.136 C88.844,188.948 94.217,181.5 100.844,181.5 z" fill-opacity="0" stroke="#515151" stroke-width="1.5"/>
    </g>
    <text transform="matrix(1, 0, 0, 1, 123.5, 201.333)">
      <tspan x="-22.799" y="-4" font-family="HelveticaNeue-Bold" font-size="14" fill="#000000">submit</tspan>
      <tspan x="-12.831" y="13" font-family="HelveticaNeue-Bold" font-size="14" fill="#000000">pod</tspan>
    </text>
    <g>
      <path d="M215.366,181.5 L272.656,181.5 C280.854,181.5 287.5,188.948 287.5,198.136 L287.5,205.53 C287.5,214.718 280.854,222.167 272.656,222.167 L215.366,222.167 C207.167,222.167 200.521,214.718 200.521,205.53 L200.521,198.136 C200.521,188.948 207.167,181.5 215.366,181.5 z" fill="#FF4437"/>
      <path d="M215.366,181.5 L272.656,181.5 C280.854,181.5 287.5,188.948 287.5,198.136 L287.5,205.53 C287.5,214.718 280.854,222.167 272.656,222.167 L215.366,222.167 C207.167,222.167 200.521,214.718 200.521,205.53 L200.521,198.136 C200.521,188.948 207.167,181.5 215.366,181.5 z" fill-opacity="0" stroke="#515151" stroke-width="1.5"/>
    </g>
    <g>
      <path d="M215.366,246.833 L272.656,246.833 C280.854,246.833 287.5,252.206 287.5,258.833 L287.5,264.167 C287.5,270.794 280.854,276.167 272.656,276.167 L215.366,276.167 C207.167,276.167 200.521,270.794 200.521,264.167 L200.521,258.833 C200.521,252.206 207.167,246.833 215.366,246.833 z" fill="#FFE436"/>
      <path d="M215.366,246.833 L272.656,246.833 C280.854,246.833 287.5,252.206 287.5,258.833 L287.5,264.167 C287.5,270.794 280.854,276.167 272.656,276.167 L215.366,276.167 C207.167,276.167 200.521,270.794 200.521,264.167 L200.521,258.833 C200.521,252.206 207.167,246.833 215.366,246.833 z" fill-opacity="0" stroke="#515151" stroke-width="1.5"/>
    </g>
    <text transform="matrix(1, 0, 0, 1, 243.511, 261)">
      <tspan x="-38.906" y="4.5" font-family="HelveticaNeue-Bold" font-size="14" fill="#000000">...driver-svc</tspan>
    </text>
    <text transform="matrix(1, 0, 0, 1, 243.511, 201.333)">
      <tspan x="-33.964" y="4.5" font-family="HelveticaNeue-Bold" font-size="14" fill="#000000">driver pod</tspan>
    </text>
    <g>
      <path d="M343.366,181.5 L400.656,181.5 C408.854,181.5 415.5,188.948 415.5,198.136 L415.5,205.53 C415.5,214.718 408.854,222.167 400.656,222.167 L343.366,222.167 C335.167,222.167 328.521,214.718 328.521,205.53 L328.521,198.136 C328.521,188.948 335.167,181.5 343.366,181.5 z" fill="#74FA37"/>
      <path d="M343.366,181.5 L400.656,181.5 C408.854,181.5 415.5,188.948 415.5,198.136 L415.5,205.53 C415.5,214.718 408.854,222.167 400.656,222.167 L343.366,222.167 C335.167,222.167 328.521,214.718 328.521,205.53 L328.521,198.136 C328.521,188.948 335.167,181.5 343.366,181.5 z" fill-opacity="0" stroke="#515151" stroke-width="1.5"/>
    </g>
    <g>
      <path d="M343.366,241.167 L400.656,241.167 C408.854,241.167 415.5,248.615 415.5,257.803 L415.5,265.197 C415.5,274.385 408.854,281.833 400.656,281.833 L343.366,281.833 C335.167,281.833 328.521,274.385 328.521,265.197 L328.521,257.803 C328.521,248.615 335.167,241.167 343.366,241.167 z" fill="#74FA37"/>
      <path d="M343.366,241.167 L400.656,241.167 C408.854,241.167 415.5,248.615 415.5,257.803 L415.5,265.197 C415.5,274.385 408.854,281.833 400.656,281.833 L343.366,281.833 C335.167,281.833 328.521,274.385 328.521,265.197 L328.521,257.803 C328.521,248.615 335.167,241.167 343.366,241.167 z" fill-opacity="0" stroke="#515151" stroke-width="1.5"/>
    </g>
    <g>
      <path d="M343.366,300.5 L400.656,300.5 C408.854,300.5 415.5,307.948 415.5,317.136 L415.5,324.53 C415.5,333.718 408.854,341.167 400.656,341.167 L343.366,341.167 C335.167,341.167 328.521,333.718 328.521,324.53 L328.521,317.136 C328.521,307.948 335.167,300.5 343.366,300.5 z" fill="#74FA37"/>
      <path d="M343.366,300.5 L400.656,300.5 C408.854,300.5 415.5,307.948 415.5,317.136 L415.5,324.53 C415.5,333.718 408.854,341.167 400.656,341.167 L343.366,341.167 C335.167,341.167 328.521,333.718 328.521,324.53 L328.521,317.136 C328.521,307.948 335.167,300.5 343.366,300.5 z" fill-opacity="0" stroke="#515151" stroke-width="1.5"/>
    </g>
    <text transform="matrix(1, 0, 0, 1, 371.511, 201.333)">
      <tspan x="-29.428" y="-4" font-family="HelveticaNeue-Bold" font-size="14" fill="#000000">executor </tspan>
      <tspan x="-12.831" y="13" font-family="HelveticaNeue-Bold" font-size="14" fill="#000000">pod</tspan>
    </text>
    <text transform="matrix(1, 0, 0, 1, 371.511, 261)">
      <tspan x="-29.428" y="-4" font-family="HelveticaNeue-Bold" font-size="14" fill="#000000">executor </tspan>
      <tspan x="-12.831" y="13" font-family="HelveticaNeue-Bold" font-size="14" fill="#000000">pod</tspan>
    </text>
    <text transform="matrix(1, 0, 0, 1, 371.511, 320.333)">
      <tspan x="-29.428" y="-4" font-family="HelveticaNeue-Bold" font-size="14" fill="#000000">executor </tspan>
      <tspan x="-12.831" y="13" font-family="HelveticaNeue-Bold" font-size="14" fill="#000000">pod</tspan>
    </text>
    <g>
      <path d="M122.5,308.5 L122.5,285.167" fill-opacity="0" stroke="#000000" stroke-width="1"/>
      <path d="M125.5,285.167 L122.5,277.167 L119.5,285.167 z" fill="#000000" fill-opacity="1" stroke="#000000" stroke-width="1" stroke-opacity="1"/>
    </g>
    <g>
      <path d="M122.5,246.833 L122.5,231.167" fill-opacity="0" stroke="#000000" stroke-width="1"/>
      <path d="M125.5,231.167 L122.5,223.167 L119.5,231.167 z" fill="#000000" fill-opacity="1" stroke="#000000" stroke-width="1" stroke-opacity="1"/>
    </g>
    <g>
      <path d="M168.156,202.167 L191.521,202.167" fill-opacity="0" stroke="#000000" stroke-width="1"/>
      <path d="M168.156,199.167 L160.156,202.167 L168.156,205.167 z" fill="#000000" fill-opacity="1" stroke="#000000" stroke-width="1" stroke-opacity="1"/>
      <path d="M191.521,205.167 L199.521,202.167 L191.521,199.167 z" fill="#000000" fill-opacity="1" stroke="#000000" stroke-width="1" stroke-opacity="1"/>
    </g>
    <g>
      <path d="M159.156,202.167 L195.215,251.564" fill-opacity="0" stroke="#000000" stroke-width="1"/>
      <path d="M192.792,253.333 L199.932,258.026 L197.638,249.795 z" fill="#000000" fill-opacity="1" stroke="#000000" stroke-width="1" stroke-opacity="1"/>
    </g>
    <g>
      <path d="M244.011,246.833 L244.011,231.167" fill-opacity="0" stroke="#000000" stroke-width="1"/>
      <path d="M247.011,231.167 L244.011,223.167 L241.011,231.167 z" fill="#000000" fill-opacity="1" stroke="#000000" stroke-width="1" stroke-opacity="1"/>
    </g>
    <g>
      <path d="M296.5,202.167 L319.521,202.167" fill-opacity="0" stroke="#000000" stroke-width="1"/>
      <path d="M296.5,199.167 L288.5,202.167 L296.5,205.167 z" fill="#000000" fill-opacity="1" stroke="#000000" stroke-width="1" stroke-opacity="1"/>
      <path d="M319.521,205.167 L327.521,202.167 L319.521,199.167 z" fill="#000000" fill-opacity="1" stroke="#000000" stroke-width="1" stroke-opacity="1"/>
    </g>
    <g>
      <path d="M292.409,209.71 L323.612,257.654" fill-opacity="0" stroke="#000000" stroke-width="1"/>
      <path d="M294.924,208.073 L288.045,203.005 L289.895,211.346 z" fill="#000000" fill-opacity="1" stroke="#000000" stroke-width="1" stroke-opacity="1"/>
      <path d="M321.098,259.29 L327.976,264.359 L326.127,256.017 z" fill="#000000" fill-opacity="1" stroke="#000000" stroke-width="1" stroke-opacity="1"/>
    </g>
    <g>
      <path d="M290.361,210.7 L325.661,315.997" fill-opacity="0" stroke="#000000" stroke-width="1"/>
      <path d="M293.205,209.746 L287.818,203.115 L287.516,211.653 z" fill="#000000" fill-opacity="1" stroke="#000000" stroke-width="1" stroke-opacity="1"/>
      <path d="M322.816,316.951 L328.204,323.582 L328.505,315.043 z" fill="#000000" fill-opacity="1" stroke="#000000" stroke-width="1" stroke-opacity="1"/>
    </g>
  </g>
</svg>
